<?xml version="1.0"?>
<svg xmlns="http://www.w3.org/2000/svg" xmlns:xlink="http://www.w3.org/1999/xlink" version="1.1" id="Capa_1" x="0px" y="0px" viewBox="0 0 59 59" style="enable-background:new 0 0 59 59;" xml:space="preserve" width="512px" height="512px" class=""><g><g>
	<g>
		<polygon style="fill:#545E73" points="34.5,2 30.5,2 30.5,5 21.5,5 21.5,2 17.5,2 2.5,2 2.5,58 49.5,58 49.5,2   " data-original="#545E73" class="active-path" data-old_color="#3F51B5"/>
		<rect x="21.5" style="fill:#404656;" width="9" height="5" data-original="#404656"/>
		<polygon style="fill:#EFEBDE;" points="37.5,5 37.5,8 14.5,8 14.5,5 5.5,5 5.5,55 46.5,55 46.5,5   " data-original="#EFEBDE" class=""/>
		<polygon style="fill:#8697CB" points="30.5,2 30.5,5 21.5,5 21.5,2 14.5,2 14.5,8 37.5,8 37.5,2   " data-original="#8697CB" class="" data-old_color="#3F51B5"/>
		<path style="fill:#D5D0BB;" d="M24.5,16h-13c-0.553,0-1-0.447-1-1s0.447-1,1-1h13c0.553,0,1,0.447,1,1S25.053,16,24.5,16z" data-original="#D5D0BB"/>
		<path style="fill:#D5D0BB;" d="M24.5,47h-13c-0.553,0-1-0.447-1-1s0.447-1,1-1h13c0.553,0,1,0.447,1,1S25.053,47,24.5,47z" data-original="#D5D0BB"/>
		<path style="fill:#D5D0BB;" d="M40.5,22h-29c-0.553,0-1-0.447-1-1s0.447-1,1-1h29c0.553,0,1,0.447,1,1S41.053,22,40.5,22z" data-original="#D5D0BB"/>
		<path style="fill:#D5D0BB;" d="M40.5,34h-29c-0.553,0-1-0.447-1-1s0.447-1,1-1h29c0.553,0,1,0.447,1,1S41.053,34,40.5,34z" data-original="#D5D0BB"/>
		<path style="fill:#D5D0BB;" d="M40.5,41h-29c-0.553,0-1-0.447-1-1s0.447-1,1-1h29c0.553,0,1,0.447,1,1S41.053,41,40.5,41z" data-original="#D5D0BB"/>
		<path style="fill:#D5D0BB;" d="M25.5,28h-14c-0.553,0-1-0.447-1-1s0.447-1,1-1h14c0.553,0,1,0.447,1,1S26.053,28,25.5,28z" data-original="#D5D0BB"/>
		<path style="fill:#D5D0BB;" d="M40.5,28h-7c-0.553,0-1-0.447-1-1s0.447-1,1-1h7c0.553,0,1,0.447,1,1S41.053,28,40.5,28z" data-original="#D5D0BB"/>
		<path style="fill:#D5D0BB;" d="M29.5,28c-0.271,0-0.521-0.101-0.71-0.29c-0.181-0.19-0.29-0.45-0.29-0.71    c0-0.271,0.1-0.521,0.29-0.71c0.38-0.38,1.04-0.37,1.42,0c0.189,0.189,0.29,0.439,0.29,0.71c0,0.27-0.11,0.52-0.29,0.71    C30.02,27.89,29.77,28,29.5,28z" data-original="#D5D0BB"/>
	</g>
	<g>
		<rect x="34.5" y="37" style="fill:#3F51B5" width="22" height="22" data-original="#48A0DC" class="" data-old_color="#48A0DC"/>
		<rect x="44.5" y="43" style="fill:#FFFFFF" width="2" height="16" data-original="#FFFFFF" class=""/>
		<polygon style="fill:#FFFFFF" points="50.793,49.707 45.5,44.414 40.207,49.707 38.793,48.293 45.5,41.586 52.207,48.293   " data-original="#FFFFFF" class=""/>
	</g>
</g></g> </svg>
