<svg height="375" viewBox="0 0 377 375" width="377" xmlns="http://www.w3.org/2000/svg"><g fill="none" fill-rule="evenodd" transform="translate(-1 -2)"><path d="m151.545378 2.01634788c-7.37554-1.96860622-17.825958.82175129-23.224693 6.20187047l-120.10067538 119.68655465c-5.39873464 5.380119-8.19874693 15.795886-6.22332924 23.144611l43.95894352 163.493922c1.9768059 7.350109 9.6285995 14.974135 17.0027518 16.944125l164.0596193 43.807368c7.37554 1.969989 17.825958-.821752 23.226081-6.201871l120.099287-119.685171c5.398735-5.380119 8.200136-15.795886 6.22333-23.145995l-43.958944-163.4939219c-1.976806-7.3487254-9.627211-14.9741347-17.002752-16.9427409z" fill="#f5f7fa" transform="translate(.135417 .758242)"/><g fill-rule="nonzero" transform="matrix(-1 0 0 -1 333 365)"><path d="m256.76 317.25h-222.510422c-14.5804909 0-26.40077753-11.825125-26.40077753-26.412989v-282.99487313l-.00880047-.00880454 22.2519851 22.26227757 22.2519851-22.26227757 22.2519851 22.26227757 22.2519851-22.26227757 22.2519856 22.26227757 22.251985-22.26227757 22.251985 22.26227757 22.251985-22.26227757 22.251985 22.26227757 22.251985-22.26227757v154.70833367" fill="#fff"/><path d="m257.74 329c-14.613198 0-26.46-12.274181-26.46-27.416014v-133.167319h52.92v133.167319c0 15.141833-11.846172 27.416014-26.46 27.416014z" fill="#fb6e4b"/><g fill="#474d54"><path d="m287.580637 158.075121h-47.510992v-151.64885037c0-2.598582-1.564398-4.94206086-3.962672-5.93677029-2.399558-.99535201-5.160527-.44402081-6.995823 1.39246468l-18.185414 18.20292548-18.18413-18.20164032c-2.506761-2.50926378-6.571502-2.50926378-9.078905 0l-18.184773 18.20292552-18.182846-18.20292552c-2.506761-2.50926378-6.571502-2.50926378-9.078905 0l-18.184773 18.20292552-18.185414-18.20292552c-2.5067611-2.50926378-6.5715019-2.50926378-9.0782632 0l-18.1847722 18.20292552-18.1834884-18.20292552c-2.5067613-2.50926378-6.5715021-2.50926378-9.0789054 0l-18.1847722 18.20292552-18.1841303-18.20292552c-2.49135486-2.49384192-6.52078917-2.50669347-9.03396988-.03534175-1.31982108 1.29864842-1.9598316 3.02910869-1.91553799 4.74800257v288.991362c0 18.423972 14.97380667 33.412727 33.37940497 33.412727h227.2300526.00321.005777c18.405598 0 33.379405-14.988755 33.379405-33.412727v-131.087023c0-3.548954-2.873949-6.425129-6.419363-6.425129zm-274.740402 137.51151v-273.6382667l11.7564218 11.7681579c2.5067614 2.5092638 6.5715022 2.5092638 9.0789055 0l18.1847722-18.2029255 18.1847722 18.2029255c2.5067613 2.5092638 6.5715021 2.5092638 9.0789054 0l18.1847722-18.2029255 18.1854137 18.2029255c2.506762 2.5092638 6.571503 2.5092638 9.078264 0l18.184772-18.2029255 18.184772 18.2029255c2.506762 2.5092638 6.571503 2.5092638 9.078906 0l18.184772-18.2029255 18.184772 18.2029255c2.507404 2.5092638 6.572144 2.5092638 9.078264 0l11.766051-11.777154v142.5608818c0 .058474.007061.115663.008987.174138v130.912243c0 7.750765 2.657616 14.887227 7.09789 20.561826h-200.9600926c-11.3269664 0-20.5413204-9.223552-20.5413204-20.561826zm268.321039 0c0 11.337631-9.214996 20.561826-20.541321 20.561826-11.326324 0-20.54132-9.224195-20.54132-20.561826v-124.66061h41.082641z"/><path d="m120.54 137.128329c-5.887247 0-10.67653-4.394079-10.67653-9.794209 0-3.510052-2.655638-6.355336-5.931735-6.355336s-5.931735 2.845284-5.931735 6.355336c0 10.359834 7.049274 19.100964 16.608265 21.707923v5.185954c0 3.510052 2.655638 6.355336 5.931735 6.355336s5.931735-2.845284 5.931735-6.355336v-5.185954c9.559584-2.606959 16.608265-11.348089 16.608265-21.707923 0-12.408794-10.111236-22.504881-22.54-22.504881-5.887247 0-10.67653-4.39408-10.67653-9.7942089 0-5.4007648 4.789876-9.7948444 10.67653-9.7948444s10.67653 4.3940796 10.67653 9.7948444c0 3.5100522 2.655638 6.3553359 5.931735 6.3553359s5.931735-2.8452837 5.931735-6.3553359c0-10.3598338-7.049274-19.1009633-16.608265-21.7079223v-4.3051048c0-3.5100523-2.655638-6.3553363-5.931735-6.3553363s-5.931735 2.845284-5.931735 6.3553363v4.3051048c-9.559584 2.606959-16.608265 11.3487241-16.608265 21.7079223 0 12.4087939 10.111829 22.5042459 22.54 22.5042459 5.887247 0 10.67653 4.39408 10.67653 9.794844 0 5.400765-4.789283 9.794209-10.67653 9.794209z"/><path d="m175.508595 127.291667h13.54281c3.837709 0 6.948595-4.383729 6.948595-9.791667 0-5.407937-3.110886-9.791667-6.948595-9.791667h-13.54281c-3.837709 0-6.948595 4.38373-6.948595 9.791667.000695 5.407938 3.111581 9.791667 6.948595 9.791667z"/><path d="m65.5714054 107.708333h-13.5428108c-3.8377088 0-6.9485946 4.38373-6.9485946 9.791667 0 5.407938 3.1108858 9.791667 6.9485946 9.791667h13.5428108c3.8377088 0 6.9485946-4.383729 6.9485946-9.791667 0-5.407937-3.1108858-9.791667-6.9485946-9.791667z"/><path d="m189.518773 180.166667h-102.6775458c-3.5795818 0-6.4812272 4.383729-6.4812272 9.791666 0 5.407938 2.9016454 9.791667 6.4812272 9.791667h102.6775458c3.579582 0 6.481227-4.383729 6.481227-9.791667-.000648-5.407937-2.901645-9.791666-6.481227-9.791666z"/><path d="m54.88 180.166667c-2.5774 0-5.1058 1.047708-6.9286 2.868958s-2.8714 4.3475-2.8714 6.922708c0 2.575209 1.0486 5.101459 2.8714 6.922709s4.3512 2.868958 6.9286 2.868958 5.1058-1.047708 6.9286-2.868958 2.8714-4.3475 2.8714-6.922709c0-2.575208-1.0486-5.101458-2.8714-6.922708s-4.3512-2.868958-6.9286-2.868958z"/><path d="m189.518773 213.458333h-102.6775458c-3.5795818 0-6.4812272 4.38373-6.4812272 9.791667 0 5.407938 2.9016454 9.791667 6.4812272 9.791667h102.6775458c3.579582 0 6.481227-4.383729 6.481227-9.791667 0-5.407937-2.901645-9.791667-6.481227-9.791667z"/><path d="m54.88 213.458333c-2.5774 0-5.1058 1.047709-6.9286 2.868959s-2.8714 4.3475-2.8714 6.922708 1.0486 5.101458 2.8714 6.922708 4.3512 2.868959 6.9286 2.868959 5.1058-1.047709 6.9286-2.868959 2.8714-4.3475 2.8714-6.922708-1.0486-5.101458-2.8714-6.922708-4.3512-2.868959-6.9286-2.868959z"/><path d="m189.518773 256.541667h-102.6775458c-3.5795818 0-6.4812272 4.383729-6.4812272 9.791666 0 5.407938 2.9016454 9.791667 6.4812272 9.791667h102.6775458c3.579582 0 6.481227-4.383729 6.481227-9.791667-.000648-5.407937-2.901645-9.791666-6.481227-9.791666z"/><path d="m54.88 256.541667c-2.5774 0-5.1058 1.047708-6.9286 2.868958s-2.8714 4.3475-2.8714 6.922708c0 2.575209 1.0486 5.101459 2.8714 6.922709s4.3512 2.868958 6.9286 2.868958 5.1058-1.047708 6.9286-2.868958 2.8714-4.3475 2.8714-6.922709c0-2.575208-1.0486-5.101458-2.8714-6.922708s-4.3512-2.868958-6.9286-2.868958z"/></g></g></g></svg>